<svg id="Layer_1" data-name="Layer 1" xmlns="http://www.w3.org/2000/svg" viewBox="0 0 304.2 243.86"><defs><style>.cls-1{fill:#fff;}.cls-2{fill:none;stroke:#fff;stroke-miterlimit:10;stroke-width:4px;}</style></defs><path class="cls-1" d="M207,148.26a142.81,142.81,0,0,1,8.08-12.37q4.31-6,9-11.65t9.62-11.1a139.2,139.2,0,0,1,10.51-10.38,139,139,0,0,1-8.08,12.37q-4.31,6-9,11.64t-9.62,11.11A145.06,145.06,0,0,1,207,148.26Z" transform="translate(-10.51 -44.2)"/><path class="cls-1" d="M207.28,165.82c8-.82,16.08-1.26,24.12-1.55,4-.18,8-.23,12-.33l12.06-.11,12.06.1c4,.11,8,.15,12.05.33,8,.3,16.08.73,24.12,1.56-8,.84-16.08,1.27-24.12,1.56-4,.19-8,.23-12.05.34l-12.06.1-12.06-.11c-4-.11-8-.15-12-.33C223.36,167.08,215.32,166.65,207.28,165.82Z" transform="translate(-10.51 -44.2)"/><path class="cls-1" d="M207,184a143,143,0,0,1,10.51,10.38q5,5.41,9.62,11.1t9,11.65a137.6,137.6,0,0,1,8.08,12.37,139.2,139.2,0,0,1-10.51-10.38q-5-5.41-9.62-11.11t-9-11.65A142.64,142.64,0,0,1,207,184Z" transform="translate(-10.51 -44.2)"/><path class="cls-1" d="M222.72,179.69a42,42,0,0,1,7.7,1.95,70.07,70.07,0,0,1,7.22,3,68,68,0,0,1,6.85,3.75,40.45,40.45,0,0,1,6.35,4.78,41.45,41.45,0,0,1-7.71-1.94,67.87,67.87,0,0,1-7.21-3,71.12,71.12,0,0,1-6.85-3.74A41.07,41.07,0,0,1,222.72,179.69Z" transform="translate(-10.51 -44.2)"/><path class="cls-1" d="M222.72,151.55a41.07,41.07,0,0,1,6.35-4.78,71.12,71.12,0,0,1,6.85-3.74,67.87,67.87,0,0,1,7.21-3,41.45,41.45,0,0,1,7.71-1.94,41.07,41.07,0,0,1-6.35,4.78,71.32,71.32,0,0,1-14.07,6.71A42,42,0,0,1,222.72,151.55Z" transform="translate(-10.51 -44.2)"/><path class="cls-2" d="M121.91,130.83a7.82,7.82,0,0,1-6.09-2.9L86.54,91.72a7.82,7.82,0,1,1,12.15-9.84L128,118.09a7.82,7.82,0,0,1-6.07,12.74Z" transform="translate(-10.51 -44.2)"/><path class="cls-2" d="M148.6,163.38" transform="translate(-10.51 -44.2)"/><path class="cls-2" d="M148.6,188.24" transform="translate(-10.51 -44.2)"/><path class="cls-2" d="M148.6,163.38V61.83H58.3a8.1,8.1,0,0,1-8.2-7.11,7.82,7.82,0,0,1,7.79-8.52H263.32a.08.08,0,0,1,.07.13L82.73,269.69h0l65.87.12V188.24" transform="translate(-10.51 -44.2)"/><path class="cls-2" d="M164.24,168.91" transform="translate(-10.51 -44.2)"/><path class="cls-2" d="M164.24,144" transform="translate(-10.51 -44.2)"/><path class="cls-2" d="M164.24,168.91v100.9l66.39-.12h0L183,210.79A7.82,7.82,0,1,1,195.15,201l68.24,84.37a.08.08,0,0,1-.07.13H50a.08.08,0,0,1-.06-.13L230.62,62a.08.08,0,0,0-.06-.13H164.24V144" transform="translate(-10.51 -44.2)"/><path class="cls-1" d="M107.26,148a145.19,145.19,0,0,1-10.51-10.39q-5-5.4-9.62-11.1t-9-11.65a139.72,139.72,0,0,1-8.07-12.37A139.32,139.32,0,0,1,80.6,112.85q5,5.4,9.62,11.1t9,11.65A141.3,141.3,0,0,1,107.26,148Z" transform="translate(-10.51 -44.2)"/><path class="cls-1" d="M107,165.53c-8,.83-16.07,1.26-24.11,1.56-4,.18-8,.22-12.06.33l-12.05.11-12.06-.11c-4-.11-8-.14-12.06-.33-8-.29-16.07-.73-24.11-1.56,8-.83,16.08-1.27,24.11-1.56,4-.19,8-.22,12.06-.33l12.06-.11,12.05.11c4,.11,8,.15,12.06.34C90.89,164.27,98.93,164.7,107,165.53Z" transform="translate(-10.51 -44.2)"/><path class="cls-1" d="M107.26,183.68a141.3,141.3,0,0,1-8.08,12.37c-2.87,4-5.86,7.85-9,11.65s-6.3,7.5-9.62,11.1a139.2,139.2,0,0,1-10.51,10.38,142.71,142.71,0,0,1,8.07-12.37q4.31-6,9-11.64t9.62-11.1A145.19,145.19,0,0,1,107.26,183.68Z" transform="translate(-10.51 -44.2)"/><path class="cls-1" d="M91.53,179.4a41.08,41.08,0,0,1-6.36,4.77,70.19,70.19,0,0,1-14.06,6.72,41.15,41.15,0,0,1-7.7,1.94,41.07,41.07,0,0,1,6.35-4.78,71.6,71.6,0,0,1,14.06-6.71A41.45,41.45,0,0,1,91.53,179.4Z" transform="translate(-10.51 -44.2)"/><path class="cls-1" d="M91.53,151.25a41.45,41.45,0,0,1-7.71-1.94,71.6,71.6,0,0,1-14.06-6.71,41.07,41.07,0,0,1-6.35-4.78,41.15,41.15,0,0,1,7.7,1.94,68,68,0,0,1,7.22,3,69.88,69.88,0,0,1,6.84,3.75A41.73,41.73,0,0,1,91.53,151.25Z" transform="translate(-10.51 -44.2)"/><path class="cls-1" d="M296.47,251.57a18.25,18.25,0,1,0,18.24,18.24A18.24,18.24,0,0,0,296.47,251.57Zm0,33a14.72,14.72,0,1,1,14.71-14.72A14.7,14.7,0,0,1,296.47,284.53Zm8.12-6c-3.9-7.08-3.69-6.73-3.91-7.07a6.1,6.1,0,0,0,2.9-5.38c0-3.86-2.22-6.27-7.47-6.27h-5.78a.87.87,0,0,0-.88.88v18.27a.88.88,0,0,0,.88.88h2.84a.89.89,0,0,0,.88-.88v-6.16h2.35l3.49,6.57a.9.9,0,0,0,.78.47h3.15a.88.88,0,0,0,.77-1.31Zm-8-9.88h-2.49v-4.72h2c2.39,0,2.87.9,2.87,2.34A2.15,2.15,0,0,1,296.54,268.63Z" transform="translate(-10.51 -44.2)"/></svg>