<svg id="Layer_1" data-name="Layer 1" xmlns="http://www.w3.org/2000/svg" viewBox="0 0 265.98 230.63"><defs><style>.cls-1{fill:#1d1d1b;stroke:#000;stroke-width:3px;}.cls-1,.cls-2,.cls-3{stroke-miterlimit:10;}.cls-2,.cls-3{fill:none;stroke:#1d1d1b;}.cls-2{stroke-width:7px;}.cls-3{stroke-width:4px;}</style></defs><path class="cls-1" d="M195.62,110.74a135.67,135.67,0,0,1,7.55-11.56q4-5.61,8.41-10.89t9-10.37a130.25,130.25,0,0,1,9.82-9.7,131,131,0,0,1-7.55,11.56q-4,5.61-8.41,10.88t-9,10.38A134.15,134.15,0,0,1,195.62,110.74Z" transform="translate(-19.06 -11.86)"/><path class="cls-1" d="M195.88,127.15c6.2-.64,12.46-1,18.69-1.2,3.1-.14,6.19-.18,9.29-.26l9.34-.08,9.35.08c3.09.08,6.19.11,9.33.25,6.2.23,12.46.57,18.68,1.21-6.19.65-12.45,1-18.68,1.21-3.1.15-6.2.18-9.33.26l-9.35.08-9.34-.09c-3.1-.08-6.19-.11-9.29-.25C208.34,128.13,202.11,127.79,195.88,127.15Z" transform="translate(-19.06 -11.86)"/><path class="cls-1" d="M195.62,144.14a132.17,132.17,0,0,1,9.82,9.7q4.68,5.06,9,10.37t8.41,10.89a123.94,123.94,0,0,1,7.55,11.56,132.17,132.17,0,0,1-9.82-9.7q-4.66-5.06-9-10.38t-8.41-10.89A135.5,135.5,0,0,1,195.62,144.14Z" transform="translate(-19.06 -11.86)"/><path class="cls-1" d="M210.31,140.11a39.77,39.77,0,0,1,7.2,1.82,65.14,65.14,0,0,1,6.74,2.81,63.16,63.16,0,0,1,6.41,3.5,37.91,37.91,0,0,1,5.93,4.47,38,38,0,0,1-7.2-1.82,63,63,0,0,1-6.74-2.8,65.91,65.91,0,0,1-6.4-3.49A38.75,38.75,0,0,1,210.31,140.11Z" transform="translate(-19.06 -11.86)"/><path class="cls-1" d="M210.31,113.81a38.57,38.57,0,0,1,5.94-4.46,66,66,0,0,1,6.4-3.5,63,63,0,0,1,6.74-2.8,38.76,38.76,0,0,1,7.2-1.82,38.39,38.39,0,0,1-5.93,4.47A66.1,66.1,0,0,1,217.51,112,39,39,0,0,1,210.31,113.81Z" transform="translate(-19.06 -11.86)"/><path class="cls-2" d="M116.1,94.45a7.31,7.31,0,0,1-5.69-2.71L83.05,57.9a7.31,7.31,0,0,1,11.12-9.49l.23.3,27.39,33.83a7.31,7.31,0,0,1-5.67,11.91Z" transform="translate(-19.06 -11.86)"/><path class="cls-3" d="M141.05,124.87" transform="translate(-19.06 -11.86)"/><path class="cls-3" d="M141.05,148.1" transform="translate(-19.06 -11.86)"/><path class="cls-2" d="M141.05,124.87V30H56.66A7.56,7.56,0,0,1,49,23.32a7.29,7.29,0,0,1,6.62-7.93q.33,0,.66,0h192a.08.08,0,0,1,.08.07,0,0,0,0,1,0,.05L79.49,224.22h0l61.56.11V148.1" transform="translate(-19.06 -11.86)"/><path class="cls-3" d="M155.66,130" transform="translate(-19.06 -11.86)"/><path class="cls-3" d="M155.66,106.76" transform="translate(-19.06 -11.86)"/><path class="cls-2" d="M155.66,130v94.29l62-.11h0l-44.51-55.05a7.31,7.31,0,0,1,10.73-9.92,6,6,0,0,1,.63.78l63.77,78.84a.09.09,0,0,1,0,.11H48.9a.07.07,0,0,1-.07-.08l0,0L217.69,30.13a.08.08,0,0,0,0-.11h-62v76.75" transform="translate(-19.06 -11.86)"/><path class="cls-1" d="M102.41,110.5q-5.14-4.6-9.82-9.71t-9-10.38q-4.32-5.32-8.41-10.88A130.89,130.89,0,0,1,67.65,68a130.38,130.38,0,0,1,9.85,9.68q4.66,5,9,10.37T94.9,98.91A131.85,131.85,0,0,1,102.41,110.5Z" transform="translate(-19.06 -11.86)"/><path class="cls-1" d="M102.17,126.88c-5.69.59-11.42.89-17.13,1.11-2.84.12-5.69.15-8.57.23l-8.56.08-8.57-.08c-2.85-.08-5.69-.1-8.57-.23-5.69-.21-11.42-.52-17.13-1.11,5.68-.59,11.42-.9,17.13-1.11,2.84-.14,5.68-.16,8.57-.24l8.57-.07,8.56.07c2.84.08,5.68.11,8.57.25C90.72,126,96.44,126.29,102.17,126.88Z" transform="translate(-19.06 -11.86)"/><path class="cls-1" d="M102.41,143.84a131,131,0,0,1-7.55,11.56c-2.68,3.74-5.47,7.34-8.41,10.89s-5.89,7-9,10.37a132.17,132.17,0,0,1-9.82,9.7,133.18,133.18,0,0,1,7.54-11.56q4-5.61,8.41-10.88t9-10.37A136.45,136.45,0,0,1,102.41,143.84Z" transform="translate(-19.06 -11.86)"/><path class="cls-1" d="M87.71,139.84a38.57,38.57,0,0,1-5.94,4.46,65.79,65.79,0,0,1-13.14,6.28,38.54,38.54,0,0,1-7.2,1.81,38.63,38.63,0,0,1,5.94-4.47,67.14,67.14,0,0,1,13.14-6.27A38.94,38.94,0,0,1,87.71,139.84Z" transform="translate(-19.06 -11.86)"/><path class="cls-1" d="M87.71,113.53a38.94,38.94,0,0,1-7.2-1.81,67.14,67.14,0,0,1-13.14-6.27A38,38,0,0,1,61.43,101a37.8,37.8,0,0,1,7.2,1.82,64,64,0,0,1,6.75,2.8,67,67,0,0,1,6.39,3.5A39,39,0,0,1,87.71,113.53Z" transform="translate(-19.06 -11.86)"/></svg>