<svg id="Layer_1" data-name="Layer 1" xmlns="http://www.w3.org/2000/svg" viewBox="0 0 274.73 224.93"><defs><style>.cls-1,.cls-2{stroke:#000;stroke-miterlimit:10;}.cls-2{fill:none;stroke-width:6px;}</style></defs><path class="cls-1" d="M197.71,108.27a86.19,86.19,0,0,1,6.84-11.76q3.78-5.58,8-10.79t8.95-10.06a85.65,85.65,0,0,1,10.18-9,88,88,0,0,1-6.84,11.77q-3.76,5.6-8,10.78t-9,10.06A86.35,86.35,0,0,1,197.71,108.27Z" transform="translate(-14.74 -11.9)"/><path class="cls-1" d="M198,124.34c7.32-1.14,14.71-1.72,22.06-2.15s14.71-.59,22.06-.59,14.71.19,22.06.59a220,220,0,0,1,22.07,2.15c-7.32,1.14-14.72,1.74-22.07,2.16s-14.7.59-22.06.58-14.7-.19-22.06-.59S205.32,125.48,198,124.34Z" transform="translate(-14.74 -11.9)"/><path class="cls-1" d="M197.71,141a87.26,87.26,0,0,1,10.17,9q4.71,4.83,9,10.06t8,10.78a86.9,86.9,0,0,1,6.84,11.77,84.79,84.79,0,0,1-10.22-9.09c-3.15-3.21-6.12-6.56-9-10.06s-5.49-7.06-8-10.78A88.17,88.17,0,0,1,197.71,141Z" transform="translate(-14.74 -11.9)"/><path class="cls-1" d="M212.09,137a27.06,27.06,0,0,1,7.32,1.13,43.22,43.22,0,0,1,6.69,2.54,41.85,41.85,0,0,1,6.18,3.6,26.47,26.47,0,0,1,5.49,5,27,27,0,0,1-7.36-1.12A43.07,43.07,0,0,1,217.6,142,27.34,27.34,0,0,1,212.09,137Z" transform="translate(-14.74 -11.9)"/><path class="cls-1" d="M212.09,111.28a26.94,26.94,0,0,1,5.49-5,43.07,43.07,0,0,1,12.81-6.16A27,27,0,0,1,237.76,99a27,27,0,0,1-5.49,5,43.72,43.72,0,0,1-12.88,6.14A26.92,26.92,0,0,1,212.09,111.28Z" transform="translate(-14.74 -11.9)"/><path class="cls-2" d="M119.86,92.33a7.17,7.17,0,0,1-5.57-2.66L87.51,56.55a7.15,7.15,0,1,1,10.88-9.29l.23.28,26.82,33.13a7.16,7.16,0,0,1-1.06,10.06,7.23,7.23,0,0,1-4.5,1.6Z" transform="translate(-14.74 -11.9)"/><path class="cls-2" d="M144.28,122.11" transform="translate(-14.74 -11.9)"/><path class="cls-2" d="M144.28,144.85" transform="translate(-14.74 -11.9)"/><path class="cls-2" d="M144.28,122.11V29.2H61.67a7.4,7.4,0,0,1-7.5-6.5,7.15,7.15,0,0,1,6.48-7.77l.64,0h188a.08.08,0,0,1,.08.07s0,0,0,0L84,219.37h0l60.26.11V144.85" transform="translate(-14.74 -11.9)"/><path class="cls-2" d="M158.59,127.16" transform="translate(-14.74 -11.9)"/><path class="cls-2" d="M158.59,104.38" transform="translate(-14.74 -11.9)"/><path class="cls-2" d="M158.59,127.16v92.32l60.74-.11h0l-43.58-53.89a7.16,7.16,0,0,1,10.51-9.72,8.82,8.82,0,0,1,.61.76l62.43,77.19a.07.07,0,0,1,0,.1s0,0,0,0H54.08a.09.09,0,0,1-.08-.08s0,0,0,0L219.32,29.36a.08.08,0,0,0,0-.11H158.59v75.14" transform="translate(-14.74 -11.9)"/><path class="cls-1" d="M106.46,108A87.16,87.16,0,0,1,96.3,99q-4.72-4.83-9-10.07t-8-10.77a86.88,86.88,0,0,1-6.82-11.78,87.34,87.34,0,0,1,10.17,9c3.15,3.21,6.12,6.56,9,10.06s5.48,7.06,8,10.78A89,89,0,0,1,106.46,108Z" transform="translate(-14.74 -11.9)"/><path class="cls-1" d="M106.22,124.07c-7.32,1.14-14.7,1.73-22,2.15s-14.71.6-22.06.6-14.71-.19-22.07-.59A219.83,219.83,0,0,1,18,124.07c7.32-1.14,14.72-1.74,22.06-2.16s14.71-.58,22.07-.58,14.7.19,22.06.59S98.84,122.94,106.22,124.07Z" transform="translate(-14.74 -11.9)"/><path class="cls-1" d="M106.46,140.68a87.79,87.79,0,0,1-6.83,11.76q-3.8,5.59-8,10.79c-2.84,3.47-5.81,6.82-9,10.06a86.35,86.35,0,0,1-10.17,9,86.66,86.66,0,0,1,6.82-11.76q3.8-5.58,8-10.78t9-10.06A87.25,87.25,0,0,1,106.46,140.68Z" transform="translate(-14.74 -11.9)"/><path class="cls-1" d="M92.07,136.76a27.28,27.28,0,0,1-5.49,5,43.2,43.2,0,0,1-6.17,3.6,41.28,41.28,0,0,1-6.69,2.54,26.36,26.36,0,0,1-7.32,1.13,26.73,26.73,0,0,1,5.49-5,43.16,43.16,0,0,1,12.87-6.13A27.4,27.4,0,0,1,92.07,136.76Z" transform="translate(-14.74 -11.9)"/><path class="cls-1" d="M92.07,111a27.12,27.12,0,0,1-7.32-1.13,43.61,43.61,0,0,1-6.69-2.54,41,41,0,0,1-6.18-3.6,27,27,0,0,1-5.49-5,27.12,27.12,0,0,1,7.32,1.13,41.28,41.28,0,0,1,6.69,2.54,43.2,43.2,0,0,1,6.17,3.6A27.07,27.07,0,0,1,92.07,111Z" transform="translate(-14.74 -11.9)"/><rect class="cls-1" x="40.59" y="3" width="188.02" height="12.84" rx="4.63"/><rect x="130.14" y="12.25" width="13.21" height="208.83"/><rect x="143.55" y="134.25" width="16.03" height="186.27" rx="8.02" transform="translate(-90.56 367.05) rotate(-90)"/><rect x="145.83" y="-13.47" width="16.03" height="271.84" rx="8.02" transform="translate(182.23 302.39) rotate(-141.18)"/><rect x="197.71" y="146.37" width="16.03" height="89.27" rx="8.02" transform="translate(471.26 194.94) rotate(140.36)"/><rect x="98.21" y="40.61" width="16.03" height="55.1" rx="8.02" transform="translate(216.77 40.98) rotate(140.36)"/></svg>