<svg id="Layer_1" data-name="Layer 1" xmlns="http://www.w3.org/2000/svg" viewBox="0 0 233.24 169.41"><defs><style>.cls-1,.cls-2{fill:none;stroke:#1d1d1b;stroke-miterlimit:10;}.cls-1{stroke-width:0.75px;}.cls-3{fill:#1d1d1b;}.cls-4{fill:#010101;}</style></defs><rect class="cls-1" x="121.88" y="0.7" width="3.17" height="168.33"/><rect class="cls-1" x="129.9" y="26.95" width="3.17" height="106.81"/><rect class="cls-1" x="138.48" y="38.74" width="3.17" height="83.24"/><rect class="cls-1" x="146.12" y="14.93" width="3.17" height="130.86"/><rect class="cls-1" x="153.67" y="55.73" width="3.17" height="58.29"/><rect class="cls-1" x="161.27" y="69.59" width="3.17" height="30.56"/><rect class="cls-1" x="168.86" y="54.58" width="3.17" height="60.58"/><rect class="cls-1" x="106.62" y="69.59" width="3.17" height="30.56"/><rect class="cls-1" x="114.29" y="54.58" width="3.17" height="60.58"/><rect class="cls-1" x="176.46" y="43.25" width="3.17" height="83.24"/><rect class="cls-1" x="184.09" y="19.44" width="3.17" height="130.86"/><rect class="cls-1" x="191.64" y="60.24" width="3.17" height="58.29"/><rect class="cls-1" x="199.24" y="74.1" width="3.17" height="30.56"/><rect class="cls-1" x="206.83" y="59.09" width="3.17" height="60.58"/><circle class="cls-2" cx="44.05" cy="85.03" r="43.55"/><rect class="cls-1" x="229.69" y="0.38" width="3.17" height="168.33"/><rect class="cls-1" x="214.43" y="69.26" width="3.17" height="30.56"/><rect class="cls-1" x="222.1" y="54.25" width="3.17" height="60.58"/><path class="cls-3" d="M116.73,124.55c.26-.43.53-.86.83-1.27s.6-.8.92-1.19.65-.76,1-1.13.7-.73,1.07-1.07c-.25.44-.53.86-.82,1.27s-.6.81-.92,1.19-.65.77-1,1.14A13.51,13.51,0,0,1,116.73,124.55Z" transform="translate(-67.43 -41.94)"/><path class="cls-3" d="M116.76,126.35c.82-.09,1.65-.13,2.47-.16l1.23,0h2.47l1.23,0c.82,0,1.65.07,2.47.16-.82.08-1.64.13-2.47.16l-1.23,0h-2.47l-1.23,0C118.41,126.48,117.59,126.43,116.76,126.35Z" transform="translate(-67.43 -41.94)"/><path class="cls-3" d="M116.73,128.21c.38.34.74.69,1.08,1.06s.67.75,1,1.14.62.78.92,1.19.57.83.82,1.27c-.37-.34-.73-.69-1.07-1.06s-.67-.75-1-1.14-.62-.79-.92-1.19S117,128.65,116.73,128.21Z" transform="translate(-67.43 -41.94)"/><path class="cls-3" d="M118.34,127.77a4.16,4.16,0,0,1,.79.2,6.81,6.81,0,0,1,.74.31,5.9,5.9,0,0,1,.7.38,3.82,3.82,0,0,1,.65.49,4.36,4.36,0,0,1-.79-.2,6.66,6.66,0,0,1-.73-.31,6,6,0,0,1-.71-.38A4.43,4.43,0,0,1,118.34,127.77Z" transform="translate(-67.43 -41.94)"/><path class="cls-3" d="M118.34,124.89a3.82,3.82,0,0,1,.65-.49,6,6,0,0,1,.71-.38,6.66,6.66,0,0,1,.73-.31,4.36,4.36,0,0,1,.79-.2,4.43,4.43,0,0,1-.65.49,7.34,7.34,0,0,1-1.44.69A4.16,4.16,0,0,1,118.34,124.89Z" transform="translate(-67.43 -41.94)"/><path class="cls-1" d="M108,122.77a.79.79,0,0,1-.62-.3l-3-3.71a.8.8,0,1,1,1.22-1l0,0,3,3.7a.81.81,0,0,1-.12,1.13.83.83,0,0,1-.5.18Z" transform="translate(-67.43 -41.94)"/><path class="cls-1" d="M110.76,126.1" transform="translate(-67.43 -41.94)"/><path class="cls-1" d="M110.76,128.64" transform="translate(-67.43 -41.94)"/><path class="cls-1" d="M110.76,126.1V115.7h-9.25a.83.83,0,0,1-.84-.72.8.8,0,0,1,.73-.87h21.11L104,137h6.75v-8.35" transform="translate(-67.43 -41.94)"/><path class="cls-1" d="M112.36,126.67" transform="translate(-67.43 -41.94)"/><path class="cls-1" d="M112.36,124.12" transform="translate(-67.43 -41.94)"/><path class="cls-1" d="M112.36,126.67V137h6.79l-4.87-6a.8.8,0,0,1,0-1.13.79.79,0,0,1,1.13.05.27.27,0,0,1,.07.08l7,8.64H100.66l18.49-22.87h-6.79v8.41" transform="translate(-67.43 -41.94)"/><path class="cls-3" d="M106.52,124.52c-.37-.33-.73-.69-1.07-1.06s-.67-.75-1-1.14-.62-.78-.92-1.19a14.27,14.27,0,0,1-.82-1.26,13.36,13.36,0,0,1,1.07,1.06c.35.36.67.74,1,1.13s.62.79.92,1.2A12.94,12.94,0,0,1,106.52,124.52Z" transform="translate(-67.43 -41.94)"/><path class="cls-3" d="M106.5,126.32c-.82.08-1.65.13-2.47.16-.41,0-.82,0-1.24,0h-2.46l-1.24,0c-.82,0-1.64-.08-2.47-.16.82-.09,1.65-.13,2.47-.16.41,0,.82,0,1.24,0l1.23,0,1.23,0,1.24,0C104.85,126.19,105.67,126.23,106.5,126.32Z" transform="translate(-67.43 -41.94)"/><path class="cls-3" d="M106.52,128.18c-.25.43-.53.86-.82,1.26s-.6.81-.92,1.2-.65.76-1,1.13a13.63,13.63,0,0,1-1.08,1.07c.26-.44.53-.86.83-1.27s.6-.81.92-1.19.65-.77,1-1.14S106.15,128.51,106.52,128.18Z" transform="translate(-67.43 -41.94)"/><path class="cls-3" d="M104.91,127.74a4.43,4.43,0,0,1-.65.49,7.34,7.34,0,0,1-1.44.69,4.14,4.14,0,0,1-.79.19,5.26,5.26,0,0,1,.65-.49,7.27,7.27,0,0,1,1.44-.68A4.36,4.36,0,0,1,104.91,127.74Z" transform="translate(-67.43 -41.94)"/><path class="cls-3" d="M104.91,124.86a4.36,4.36,0,0,1-.79-.2,7.93,7.93,0,0,1-1.44-.69,3.82,3.82,0,0,1-.65-.49,4.16,4.16,0,0,1,.79.2,6.81,6.81,0,0,1,.74.31,5.9,5.9,0,0,1,.7.38A4.43,4.43,0,0,1,104.91,124.86Z" transform="translate(-67.43 -41.94)"/><path class="cls-4" d="M125.89,135.13a1.87,1.87,0,1,0,1.87,1.87h0A1.86,1.86,0,0,0,125.89,135.13Zm0,3.38A1.51,1.51,0,1,1,127.4,137h0a1.51,1.51,0,0,1-1.51,1.5Zm.84-.62a5.73,5.73,0,0,0-.41-.72.61.61,0,0,0,.3-.55c0-.4-.23-.64-.76-.64h-.59a.08.08,0,0,0-.09.08h0v1.87a.09.09,0,0,0,.09.09h.29a.09.09,0,0,0,.09-.09v-.64h.24l.35.68a.1.1,0,0,0,.08.05h.33a.09.09,0,0,0,.09-.09s0,0,0-.05Zm-.82-1h-.26v-.48h.21c.24,0,.29.09.29.24a.23.23,0,0,1-.2.24h0Z" transform="translate(-67.43 -41.94)"/></svg>